Acclaimed Chinese director Jia Zhangke casts a compassionate eye on the daily loves, friendships and desperate dreams of the twenty-somethings from ChinaΓÇÖs remote Provinces who come to live and work at BeijingΓÇÖs World Park.

Complete name : Shijie.2004.Bluray.720p.DTS.x264-CHD.mkv
Format : Matroska
File size : 6.54 GiB
Duration : 2h 19mn
Overall bit rate : 6 720 Kbps
Encoded date : UTC 2010-09-13 12:55:56
Writing application : mkvmerge v3.2.0 ('Beginnings') ▬╤Ä Feb 12 2010 16:46:17
Writing library : libebml v0.7.9 + libmatroska v0.8.1

Video
ID : 1
Format : AVC
Format/Info : Advanced Video Codec
Format profile : High@L4.1
Format settings, CABAC : Yes
Format settings, ReFrames : 8 frames
Muxing mode : Container profile=Unknown@4.1
Codec ID : V_MPEG4/ISO/AVC
Duration : 2h 19mn
Bit rate : 5 077 Kbps
Nominal bit rate : 5 210 Kbps
Width : 1 280 pixels
Height : 546 pixels
Display aspect ratio : 2.35:1
Frame rate : 24.000 fps
Resolution : 8 bits
Colorimetry : 4:2:0
Scan type : Progressive
Bits/(Pixel*Frame) : 0.303
Stream size : 4.94 GiB (76%)
Title : Shijie.2004.Bluray.720p.DTS.x264-CHD
Writing library : x264 core 84 r1416 fcf70c2
Language : Chinese

Audio
ID : 2
Format : DTS
Format/Info : Digital Theater Systems
Codec ID : A_DTS
Duration : 2h 19mn
Bit rate mode : Constant
Bit rate : 1 510 Kbps
Channel(s) : 2 channels
Channel positions : Front: L R
Sampling rate : 48.0 KHz
Resolution : 24 bits
Stream size : 1.47 GiB (22%)
Title : Shijie.2004.DTS-HD.Core.2.0_1509kbps
Language : Chinese